<?xml version="1.0" encoding="UTF-8" standalone="no"?>
<!DOCTYPE svg PUBLIC "-//W3C//DTD SVG 1.1//EN"
 "http://www.w3.org/Graphics/SVG/1.1/DTD/svg11.dtd">
<!-- Generated by graphviz version 5.0.0 (20220707.1540)
 -->
<!-- Title: StorageDiagram Pages: 1 -->
<svg width="2530pt" height="578pt"
 viewBox="0.00 0.00 2530.36 578.40" xmlns="http://www.w3.org/2000/svg" xmlns:xlink="http://www.w3.org/1999/xlink">
<g id="graph0" class="graph" transform="scale(1 1) rotate(0) translate(4 574.4)">
<title>StorageDiagram</title>
<polygon fill="white" stroke="transparent" points="-4,4 -4,-574.4 2526.36,-574.4 2526.36,4 -4,4"/>
<!-- 6 -->
<g id="node1" class="node">
<title>6</title>
<polygon fill="#f2f2f2" stroke="black" points="0,-183.5 0,-406.7 527.68,-406.7 527.68,-183.5 0,-183.5"/>
<text text-anchor="middle" x="263.84" y="-390.1" font-family="Courier New" font-size="14.00">GasContract &lt;&lt;Contract&gt;&gt;</text>
<polyline fill="none" stroke="black" points="0,-381.9 527.68,-381.9 "/>
<text text-anchor="middle" x="24.8" y="-365.3" font-family="Courier New" font-size="14.00">slot</text>
<polyline fill="none" stroke="black" points="0,-357.1 49.61,-357.1 "/>
<text text-anchor="middle" x="24.8" y="-340.5" font-family="Courier New" font-size="14.00">0</text>
<polyline fill="none" stroke="black" points="0,-332.3 49.61,-332.3 "/>
<text text-anchor="middle" x="24.8" y="-315.7" font-family="Courier New" font-size="14.00">1</text>
<polyline fill="none" stroke="black" points="0,-307.5 49.61,-307.5 "/>
<text text-anchor="middle" x="24.8" y="-290.9" font-family="Courier New" font-size="14.00">2</text>
<polyline fill="none" stroke="black" points="0,-282.7 49.61,-282.7 "/>
<text text-anchor="middle" x="24.8" y="-266.1" font-family="Courier New" font-size="14.00">3</text>
<polyline fill="none" stroke="black" points="0,-257.9 49.61,-257.9 "/>
<text text-anchor="middle" x="24.8" y="-241.3" font-family="Courier New" font-size="14.00">4&#45;8</text>
<polyline fill="none" stroke="black" points="0,-233.1 49.61,-233.1 "/>
<text text-anchor="middle" x="24.8" y="-216.5" font-family="Courier New" font-size="14.00">9</text>
<polyline fill="none" stroke="black" points="0,-208.3 49.61,-208.3 "/>
<text text-anchor="middle" x="24.8" y="-191.7" font-family="Courier New" font-size="14.00">10</text>
<polyline fill="none" stroke="black" points="49.61,-183.5 49.61,-381.9 "/>
<text text-anchor="middle" x="288.64" y="-365.3" font-family="Courier New" font-size="14.00">type: &lt;inherited contract&gt;.variable (bytes)</text>
<polyline fill="none" stroke="black" points="49.61,-357.1 527.68,-357.1 "/>
<text text-anchor="middle" x="149.82" y="-340.5" font-family="Courier New" font-size="14.00">unallocated (31)</text>
<polyline fill="none" stroke="black" points="250.03,-332.3 250.03,-357.1 "/>
<text text-anchor="middle" x="388.54" y="-340.5" font-family="Courier New" font-size="14.00">uint8: paymentCounter (1)</text>
<polyline fill="none" stroke="black" points="49.61,-332.3 527.68,-332.3 "/>
<text text-anchor="middle" x="288.63" y="-315.7" font-family="Courier New" font-size="14.00">mapping(address=&gt;uint256): balances (32)</text>
<polyline fill="none" stroke="black" points="49.61,-307.5 527.68,-307.5 "/>
<text text-anchor="middle" x="288.53" y="-290.9" font-family="Courier New" font-size="14.00">mapping(address=&gt;Payment[]): payments (32)</text>
<polyline fill="none" stroke="black" points="49.61,-282.7 527.68,-282.7 "/>
<text text-anchor="middle" x="288.33" y="-266.1" font-family="Courier New" font-size="14.00">mapping(address=&gt;uint256): whitelist (32)</text>
<polyline fill="none" stroke="black" points="49.61,-257.9 527.68,-257.9 "/>
<text text-anchor="middle" x="288.53" y="-241.3" font-family="Courier New" font-size="14.00">address[5]: administrators (160)</text>
<polyline fill="none" stroke="black" points="49.61,-233.1 527.68,-233.1 "/>
<text text-anchor="middle" x="288.63" y="-216.5" font-family="Courier New" font-size="14.00">History[]: paymentHistory (32)</text>
<polyline fill="none" stroke="black" points="49.61,-208.3 527.68,-208.3 "/>
<text text-anchor="middle" x="288.64" y="-191.7" font-family="Courier New" font-size="14.00">mapping(address=&gt;ImportantStruct): whiteListStruct (32)</text>
</g>
<!-- 1 -->
<g id="node2" class="node">
<title>1</title>
<polygon fill="#f2f2f2" stroke="black" points="684.7,-396.3 684.7,-569.9 1537.62,-569.9 1537.62,-396.3 684.7,-396.3"/>
<text text-anchor="middle" x="1111.16" y="-553.3" font-family="Courier New" font-size="14.00">Payment &lt;&lt;Struct&gt;&gt;</text>
<polyline fill="none" stroke="black" points="684.7,-545.1 1537.62,-545.1 "/>
<text text-anchor="middle" x="717.9" y="-528.5" font-family="Courier New" font-size="14.00">offset</text>
<polyline fill="none" stroke="black" points="684.7,-520.3 751.11,-520.3 "/>
<text text-anchor="middle" x="717.9" y="-503.7" font-family="Courier New" font-size="14.00">0</text>
<polyline fill="none" stroke="black" points="684.7,-495.5 751.11,-495.5 "/>
<text text-anchor="middle" x="717.9" y="-478.9" font-family="Courier New" font-size="14.00">1</text>
<polyline fill="none" stroke="black" points="684.7,-470.7 751.11,-470.7 "/>
<text text-anchor="middle" x="717.9" y="-454.1" font-family="Courier New" font-size="14.00">2</text>
<polyline fill="none" stroke="black" points="684.7,-445.9 751.11,-445.9 "/>
<text text-anchor="middle" x="717.9" y="-429.3" font-family="Courier New" font-size="14.00">3</text>
<polyline fill="none" stroke="black" points="684.7,-421.1 751.11,-421.1 "/>
<text text-anchor="middle" x="717.9" y="-404.5" font-family="Courier New" font-size="14.00">4</text>
<polyline fill="none" stroke="black" points="751.11,-396.3 751.11,-545.1 "/>
<text text-anchor="middle" x="1144.36" y="-528.5" font-family="Courier New" font-size="14.00">type: variable (bytes)</text>
<polyline fill="none" stroke="black" points="751.11,-520.3 1537.62,-520.3 "/>
<text text-anchor="middle" x="826.32" y="-503.7" font-family="Courier New" font-size="14.00">unallocated (29)</text>
<polyline fill="none" stroke="black" points="901.53,-495.5 901.53,-520.3 "/>
<text text-anchor="middle" x="1001.94" y="-503.7" font-family="Courier New" font-size="14.00">bool: adminUpdated (1)</text>
<polyline fill="none" stroke="black" points="1102.36,-495.5 1102.36,-520.3 "/>
<text text-anchor="middle" x="1194.37" y="-503.7" font-family="Courier New" font-size="14.00">uint8: paymentID (1)</text>
<polyline fill="none" stroke="black" points="1286.39,-495.5 1286.39,-520.3 "/>
<text text-anchor="middle" x="1412" y="-503.7" font-family="Courier New" font-size="14.00">PaymentType: paymentType (1)</text>
<polyline fill="none" stroke="black" points="751.11,-495.5 1537.62,-495.5 "/>
<text text-anchor="middle" x="1144.32" y="-478.9" font-family="Courier New" font-size="14.00">string: recipientName (32)</text>
<polyline fill="none" stroke="black" points="751.11,-470.7 1537.62,-470.7 "/>
<text text-anchor="middle" x="932.82" y="-454.1" font-family="Courier New" font-size="14.00">unallocated (12)</text>
<polyline fill="none" stroke="black" points="1114.53,-445.9 1114.53,-470.7 "/>
<text text-anchor="middle" x="1325.64" y="-454.1" font-family="Courier New" font-size="14.00">address: recipient (20)</text>
<polyline fill="none" stroke="black" points="751.11,-445.9 1537.62,-445.9 "/>
<text text-anchor="middle" x="941.32" y="-429.3" font-family="Courier New" font-size="14.00">unallocated (12)</text>
<polyline fill="none" stroke="black" points="1131.53,-421.1 1131.53,-445.9 "/>
<text text-anchor="middle" x="1334.34" y="-429.3" font-family="Courier New" font-size="14.00">address: admin (20)</text>
<polyline fill="none" stroke="black" points="751.11,-421.1 1537.62,-421.1 "/>
<text text-anchor="middle" x="1144.12" y="-404.5" font-family="Courier New" font-size="14.00">uint256: amount (32)</text>
</g>
<!-- 6&#45;&gt;1 -->
<g id="edge1" class="edge">
<title>6:10&#45;&gt;1</title>
<path fill="none" stroke="black" d="M527.68,-295.1C571.59,-295.1 529.7,-359.29 563.68,-387.1 596.79,-414.2 634.86,-434.78 675.17,-450.3"/>
<polygon fill="black" stroke="black" points="674.04,-453.61 684.63,-453.83 676.49,-447.05 674.04,-453.61"/>
</g>
<!-- 2 -->
<g id="node3" class="node">
<title>2</title>
<polygon fill="#f2f2f2" stroke="black" points="951.94,-228.7 951.94,-377.5 1270.39,-377.5 1270.39,-228.7 951.94,-228.7"/>
<text text-anchor="middle" x="1111.16" y="-360.9" font-family="Courier New" font-size="14.00">address[5]: administrators &lt;&lt;Array&gt;&gt;</text>
<polyline fill="none" stroke="black" points="951.94,-352.7 1270.39,-352.7 "/>
<text text-anchor="middle" x="976.74" y="-336.1" font-family="Courier New" font-size="14.00">slot</text>
<polyline fill="none" stroke="black" points="951.94,-327.9 1001.54,-327.9 "/>
<text text-anchor="middle" x="976.74" y="-311.3" font-family="Courier New" font-size="14.00">4</text>
<polyline fill="none" stroke="black" points="951.94,-303.1 1001.54,-303.1 "/>
<text text-anchor="middle" x="976.74" y="-286.5" font-family="Courier New" font-size="14.00">5</text>
<polyline fill="none" stroke="black" points="951.94,-278.3 1001.54,-278.3 "/>
<text text-anchor="middle" x="976.74" y="-261.7" font-family="Courier New" font-size="14.00">7</text>
<polyline fill="none" stroke="black" points="951.94,-253.5 1001.54,-253.5 "/>
<text text-anchor="middle" x="976.74" y="-236.9" font-family="Courier New" font-size="14.00">8</text>
<polyline fill="none" stroke="black" points="1001.54,-228.7 1001.54,-352.7 "/>
<text text-anchor="middle" x="1135.66" y="-336.1" font-family="Courier New" font-size="14.00">type: variable (bytes)</text>
<polyline fill="none" stroke="black" points="1001.54,-327.9 1269.78,-327.9 "/>
<text text-anchor="middle" x="1076.75" y="-311.3" font-family="Courier New" font-size="14.00">unallocated (12)</text>
<polyline fill="none" stroke="black" points="1151.96,-303.1 1151.96,-327.9 "/>
<text text-anchor="middle" x="1210.87" y="-311.3" font-family="Courier New" font-size="14.00">address (20)</text>
<polyline fill="none" stroke="black" points="1001.54,-303.1 1269.78,-303.1 "/>
<text text-anchor="middle" x="1076.75" y="-286.5" font-family="Courier New" font-size="14.00">unallocated (12)</text>
<polyline fill="none" stroke="black" points="1151.96,-278.3 1151.96,-303.1 "/>
<text text-anchor="middle" x="1210.87" y="-286.5" font-family="Courier New" font-size="14.00">address (20)</text>
<polyline fill="none" stroke="black" points="1001.54,-278.3 1269.78,-278.3 "/>
<text text-anchor="middle" x="1076.75" y="-261.7" font-family="Courier New" font-size="14.00">unallocated (12)</text>
<polyline fill="none" stroke="black" points="1151.96,-253.5 1151.96,-278.3 "/>
<text text-anchor="middle" x="1210.87" y="-261.7" font-family="Courier New" font-size="14.00">address (20)</text>
<polyline fill="none" stroke="black" points="1001.54,-253.5 1269.78,-253.5 "/>
<text text-anchor="middle" x="1076.75" y="-236.9" font-family="Courier New" font-size="14.00">unallocated (12)</text>
<polyline fill="none" stroke="black" points="1151.96,-228.7 1151.96,-253.5 "/>
<text text-anchor="middle" x="1210.87" y="-236.9" font-family="Courier New" font-size="14.00">address (20)</text>
</g>
<!-- 6&#45;&gt;2 -->
<g id="edge2" class="edge">
<title>6:16&#45;&gt;2</title>
<path fill="none" stroke="black" d="M527.68,-245.1C667.65,-245.1 825.62,-261.89 941.7,-277.4"/>
<polygon fill="black" stroke="black" points="941.37,-280.89 951.74,-278.75 942.3,-273.95 941.37,-280.89"/>
</g>
<!-- 4 -->
<g id="node5" class="node">
<title>4</title>
<polygon fill="#f2f2f2" stroke="black" points="825.92,-118.5 825.92,-209.7 1396.41,-209.7 1396.41,-118.5 825.92,-118.5"/>
<text text-anchor="middle" x="1111.16" y="-193.1" font-family="Courier New" font-size="14.00">History[]: paymentHistory &lt;&lt;Array&gt;&gt;</text>
<text text-anchor="middle" x="1111.16" y="-176.3" font-family="Courier New" font-size="14.00">0x6e1540171b6c0c960b71a7020d9f60077f6af931a8bbf590da0223dacf75c7af</text>
<polyline fill="none" stroke="black" points="825.92,-168.1 1396.41,-168.1 "/>
<text text-anchor="middle" x="934.62" y="-151.5" font-family="Courier New" font-size="14.00">offset</text>
<polyline fill="none" stroke="black" points="825.92,-143.3 1043.32,-143.3 "/>
<text text-anchor="middle" x="934.62" y="-126.7" font-family="Courier New" font-size="14.00">0</text>
<polyline fill="none" stroke="black" points="1043.32,-118.5 1043.32,-168.1 "/>
<text text-anchor="middle" x="1219.74" y="-151.5" font-family="Courier New" font-size="14.00">type: variable (bytes)</text>
<polyline fill="none" stroke="black" points="1043.32,-143.3 1396.15,-143.3 "/>
<text text-anchor="middle" x="1219.73" y="-126.7" font-family="Courier New" font-size="14.00">History (32)</text>
</g>
<!-- 6&#45;&gt;4 -->
<g id="edge3" class="edge">
<title>6:21&#45;&gt;4</title>
<path fill="none" stroke="black" d="M527.68,-221.1C543.34,-221.1 679.02,-207.88 815.48,-194.17"/>
<polygon fill="black" stroke="black" points="816.12,-197.63 825.72,-193.14 815.42,-190.66 816.12,-197.63"/>
</g>
<!-- 5 -->
<g id="node6" class="node">
<title>5</title>
<polygon fill="#f2f2f2" stroke="black" points="563.68,-0.5 563.68,-99.7 1658.64,-99.7 1658.64,-0.5 563.68,-0.5"/>
<text text-anchor="middle" x="1111.16" y="-83.1" font-family="Courier New" font-size="14.00">ImportantStruct &lt;&lt;Struct&gt;&gt;</text>
<polyline fill="none" stroke="black" points="563.68,-74.9 1658.64,-74.9 "/>
<text text-anchor="middle" x="596.88" y="-58.3" font-family="Courier New" font-size="14.00">offset</text>
<polyline fill="none" stroke="black" points="563.68,-50.1 630.09,-50.1 "/>
<text text-anchor="middle" x="596.88" y="-33.5" font-family="Courier New" font-size="14.00">0</text>
<polyline fill="none" stroke="black" points="563.68,-25.3 630.09,-25.3 "/>
<text text-anchor="middle" x="596.88" y="-8.7" font-family="Courier New" font-size="14.00">1</text>
<polyline fill="none" stroke="black" points="630.09,-0.5 630.09,-74.9 "/>
<text text-anchor="middle" x="1144.36" y="-58.3" font-family="Courier New" font-size="14.00">type: variable (bytes)</text>
<polyline fill="none" stroke="black" points="630.09,-50.1 1658.64,-50.1 "/>
<text text-anchor="middle" x="1144.1" y="-33.5" font-family="Courier New" font-size="14.00">uint256: amount (32)</text>
<polyline fill="none" stroke="black" points="630.09,-25.3 1658.64,-25.3 "/>
<text text-anchor="middle" x="701.1" y="-8.7" font-family="Courier New" font-size="14.00">unallocated (8)</text>
<polyline fill="none" stroke="black" points="772.11,-0.5 772.11,-25.3 "/>
<text text-anchor="middle" x="864.12" y="-8.7" font-family="Courier New" font-size="14.00">address: sender (20)</text>
<polyline fill="none" stroke="black" points="956.14,-0.5 956.14,-25.3 "/>
<text text-anchor="middle" x="1060.75" y="-8.7" font-family="Courier New" font-size="14.00">bool: paymentStatus (1)</text>
<polyline fill="none" stroke="black" points="1165.37,-0.5 1165.37,-25.3 "/>
<text text-anchor="middle" x="1244.78" y="-8.7" font-family="Courier New" font-size="14.00">uint8: valueB (1)</text>
<polyline fill="none" stroke="black" points="1324.19,-0.5 1324.19,-25.3 "/>
<text text-anchor="middle" x="1412" y="-8.7" font-family="Courier New" font-size="14.00">uint8: bigValue (1)</text>
<polyline fill="none" stroke="black" points="1499.82,-0.5 1499.82,-25.3 "/>
<text text-anchor="middle" x="1579.23" y="-8.7" font-family="Courier New" font-size="14.00">uint8: valueA (1)</text>
</g>
<!-- 6&#45;&gt;5 -->
<g id="edge4" class="edge">
<title>6:28&#45;&gt;5</title>
<path fill="none" stroke="black" d="M527.68,-196.1C569.53,-196.1 530.19,-134.19 563.68,-109.1 565.29,-107.89 566.91,-106.7 568.54,-105.53"/>
<polygon fill="black" stroke="black" points="570.59,-108.37 576.79,-99.78 566.58,-102.63 570.59,-108.37"/>
</g>
<!-- 3 -->
<g id="node4" class="node">
<title>3</title>
<polygon fill="#f2f2f2" stroke="black" points="1694.64,-85.5 1694.64,-176.7 2522.36,-176.7 2522.36,-85.5 1694.64,-85.5"/>
<text text-anchor="middle" x="2108.5" y="-160.1" font-family="Courier New" font-size="14.00">History &lt;&lt;Struct&gt;&gt;</text>
<text text-anchor="middle" x="2108.5" y="-143.3" font-family="Courier New" font-size="14.00">0x6e1540171b6c0c960b71a7020d9f60077f6af931a8bbf590da0223dacf75c7af</text>
<polyline fill="none" stroke="black" points="1694.64,-135.1 2522.36,-135.1 "/>
<text text-anchor="middle" x="1727.84" y="-118.5" font-family="Courier New" font-size="14.00">offset</text>
<polyline fill="none" stroke="black" points="1694.64,-110.3 1761.05,-110.3 "/>
<text text-anchor="middle" x="1727.84" y="-93.7" font-family="Courier New" font-size="14.00">0</text>
<polyline fill="none" stroke="black" points="1761.05,-85.5 1761.05,-135.1 "/>
<text text-anchor="middle" x="2141.71" y="-118.5" font-family="Courier New" font-size="14.00">type: variable (bytes)</text>
<polyline fill="none" stroke="black" points="1761.05,-110.3 2522.36,-110.3 "/>
<text text-anchor="middle" x="1832.06" y="-93.7" font-family="Courier New" font-size="14.00">unallocated (4)</text>
<polyline fill="none" stroke="black" points="1903.07,-85.5 1903.07,-110.3 "/>
<text text-anchor="middle" x="2007.69" y="-93.7" font-family="Courier New" font-size="14.00">uint32: blockNumber (4)</text>
<polyline fill="none" stroke="black" points="2112.3,-85.5 2112.3,-110.3 "/>
<text text-anchor="middle" x="2216.92" y="-93.7" font-family="Courier New" font-size="14.00">address: updatedBy (20)</text>
<polyline fill="none" stroke="black" points="2321.53,-85.5 2321.53,-110.3 "/>
<text text-anchor="middle" x="2421.95" y="-93.7" font-family="Courier New" font-size="14.00">uint32: lastUpdate (4)</text>
</g>
<!-- 4&#45;&gt;3 -->
<g id="edge5" class="edge">
<title>4:20&#45;&gt;3</title>
<path fill="none" stroke="black" d="M1397.16,-131.1C1490.06,-131.1 1589.8,-131.1 1684.31,-131.1"/>
<polygon fill="black" stroke="black" points="1684.32,-134.6 1694.32,-131.1 1684.32,-127.6 1684.32,-134.6"/>
</g>
</g>
</svg>
