<?xml version="1.0" encoding="UTF-8" standalone="no"?>
<!DOCTYPE svg PUBLIC "-//W3C//DTD SVG 1.1//EN"
 "http://www.w3.org/Graphics/SVG/1.1/DTD/svg11.dtd">
<!-- Generated by graphviz version 5.0.0 (20220707.1540)
 -->
<!-- Title: StorageDiagram Pages: 1 -->
<svg width="1788pt" height="702pt"
 viewBox="0.00 0.00 1788.26 702.40" xmlns="http://www.w3.org/2000/svg" xmlns:xlink="http://www.w3.org/1999/xlink">
<g id="graph0" class="graph" transform="scale(1 1) rotate(0) translate(4 698.4)">
<title>StorageDiagram</title>
<polygon fill="white" stroke="transparent" points="-4,4 -4,-698.4 1784.26,-698.4 1784.26,4 -4,4"/>
<!-- 6 -->
<g id="node1" class="node">
<title>6</title>
<polygon fill="#f2f2f2" stroke="black" points="0,-208.9 0,-481.7 527.68,-481.7 527.68,-208.9 0,-208.9"/>
<text text-anchor="middle" x="263.84" y="-465.1" font-family="Courier New" font-size="14.00">GasContract &lt;&lt;Contract&gt;&gt;</text>
<polyline fill="none" stroke="black" points="0,-456.9 527.68,-456.9 "/>
<text text-anchor="middle" x="24.8" y="-440.3" font-family="Courier New" font-size="14.00">slot</text>
<polyline fill="none" stroke="black" points="0,-432.1 49.61,-432.1 "/>
<text text-anchor="middle" x="24.8" y="-415.5" font-family="Courier New" font-size="14.00">0</text>
<polyline fill="none" stroke="black" points="0,-407.3 49.61,-407.3 "/>
<text text-anchor="middle" x="24.8" y="-390.7" font-family="Courier New" font-size="14.00">1</text>
<polyline fill="none" stroke="black" points="0,-382.5 49.61,-382.5 "/>
<text text-anchor="middle" x="24.8" y="-365.9" font-family="Courier New" font-size="14.00">2</text>
<polyline fill="none" stroke="black" points="0,-357.7 49.61,-357.7 "/>
<text text-anchor="middle" x="24.8" y="-341.1" font-family="Courier New" font-size="14.00">3</text>
<polyline fill="none" stroke="black" points="0,-332.9 49.61,-332.9 "/>
<text text-anchor="middle" x="24.8" y="-316.3" font-family="Courier New" font-size="14.00">4&#45;8</text>
<polyline fill="none" stroke="black" points="0,-308.1 49.61,-308.1 "/>
<text text-anchor="middle" x="24.8" y="-291.5" font-family="Courier New" font-size="14.00">9</text>
<polyline fill="none" stroke="black" points="0,-283.3 49.61,-283.3 "/>
<text text-anchor="middle" x="24.8" y="-266.7" font-family="Courier New" font-size="14.00">10</text>
<polyline fill="none" stroke="black" points="0,-258.5 49.61,-258.5 "/>
<text text-anchor="middle" x="24.8" y="-241.9" font-family="Courier New" font-size="14.00">11</text>
<polyline fill="none" stroke="black" points="0,-233.7 49.61,-233.7 "/>
<text text-anchor="middle" x="24.8" y="-217.1" font-family="Courier New" font-size="14.00">12</text>
<polyline fill="none" stroke="black" points="49.61,-208.9 49.61,-456.9 "/>
<text text-anchor="middle" x="288.64" y="-440.3" font-family="Courier New" font-size="14.00">type: &lt;inherited contract&gt;.variable (bytes)</text>
<polyline fill="none" stroke="black" points="49.61,-432.1 527.68,-432.1 "/>
<text text-anchor="middle" x="149.82" y="-415.5" font-family="Courier New" font-size="14.00">unallocated (31)</text>
<polyline fill="none" stroke="black" points="250.03,-407.3 250.03,-432.1 "/>
<text text-anchor="middle" x="388.54" y="-415.5" font-family="Courier New" font-size="14.00">uint8: paymentCounter (1)</text>
<polyline fill="none" stroke="black" points="49.61,-407.3 527.68,-407.3 "/>
<text text-anchor="middle" x="288.63" y="-390.7" font-family="Courier New" font-size="14.00">mapping(address=&gt;uint256): balances (32)</text>
<polyline fill="none" stroke="black" points="49.61,-382.5 527.68,-382.5 "/>
<text text-anchor="middle" x="288.53" y="-365.9" font-family="Courier New" font-size="14.00">mapping(address=&gt;Payment[]): payments (32)</text>
<polyline fill="none" stroke="black" points="49.61,-357.7 527.68,-357.7 "/>
<text text-anchor="middle" x="288.33" y="-341.1" font-family="Courier New" font-size="14.00">mapping(address=&gt;uint256): whitelist (32)</text>
<polyline fill="none" stroke="black" points="49.61,-332.9 527.68,-332.9 "/>
<text text-anchor="middle" x="288.53" y="-316.3" font-family="Courier New" font-size="14.00">address[5]: administrators (160)</text>
<polyline fill="none" stroke="black" points="49.61,-308.1 527.68,-308.1 "/>
<text text-anchor="middle" x="288.63" y="-291.5" font-family="Courier New" font-size="14.00">History[]: paymentHistory (32)</text>
<polyline fill="none" stroke="black" points="49.61,-283.3 527.68,-283.3 "/>
<text text-anchor="middle" x="288.42" y="-266.7" font-family="Courier New" font-size="14.00">uint256: wasLastOdd (32)</text>
<polyline fill="none" stroke="black" points="49.61,-258.5 527.68,-258.5 "/>
<text text-anchor="middle" x="288.64" y="-241.9" font-family="Courier New" font-size="14.00">mapping(address=&gt;uint256): isOddWhitelistUser (32)</text>
<polyline fill="none" stroke="black" points="49.61,-233.7 527.68,-233.7 "/>
<text text-anchor="middle" x="288.64" y="-217.1" font-family="Courier New" font-size="14.00">mapping(address=&gt;ImportantStruct): whiteListStruct (32)</text>
</g>
<!-- 1 -->
<g id="node2" class="node">
<title>1</title>
<polygon fill="#f2f2f2" stroke="black" points="634.69,-470.7 634.69,-693.9 1102.76,-693.9 1102.76,-470.7 634.69,-470.7"/>
<text text-anchor="middle" x="868.73" y="-677.3" font-family="Courier New" font-size="14.00">Payment &lt;&lt;Struct&gt;&gt;</text>
<polyline fill="none" stroke="black" points="634.69,-669.1 1102.76,-669.1 "/>
<text text-anchor="middle" x="667.9" y="-652.5" font-family="Courier New" font-size="14.00">offset</text>
<polyline fill="none" stroke="black" points="634.69,-644.3 701.1,-644.3 "/>
<text text-anchor="middle" x="667.9" y="-627.7" font-family="Courier New" font-size="14.00">0</text>
<polyline fill="none" stroke="black" points="634.69,-619.5 701.1,-619.5 "/>
<text text-anchor="middle" x="667.9" y="-602.9" font-family="Courier New" font-size="14.00">1</text>
<polyline fill="none" stroke="black" points="634.69,-594.7 701.1,-594.7 "/>
<text text-anchor="middle" x="667.9" y="-578.1" font-family="Courier New" font-size="14.00">2</text>
<polyline fill="none" stroke="black" points="634.69,-569.9 701.1,-569.9 "/>
<text text-anchor="middle" x="667.9" y="-553.3" font-family="Courier New" font-size="14.00">3</text>
<polyline fill="none" stroke="black" points="634.69,-545.1 701.1,-545.1 "/>
<text text-anchor="middle" x="667.9" y="-528.5" font-family="Courier New" font-size="14.00">4</text>
<polyline fill="none" stroke="black" points="634.69,-520.3 701.1,-520.3 "/>
<text text-anchor="middle" x="667.9" y="-503.7" font-family="Courier New" font-size="14.00">5</text>
<polyline fill="none" stroke="black" points="634.69,-495.5 701.1,-495.5 "/>
<text text-anchor="middle" x="667.9" y="-478.9" font-family="Courier New" font-size="14.00">6</text>
<polyline fill="none" stroke="black" points="701.1,-470.7 701.1,-669.1 "/>
<text text-anchor="middle" x="901.93" y="-652.5" font-family="Courier New" font-size="14.00">type: variable (bytes)</text>
<polyline fill="none" stroke="black" points="701.1,-644.3 1102.76,-644.3 "/>
<text text-anchor="middle" x="776.31" y="-627.7" font-family="Courier New" font-size="14.00">unallocated (31)</text>
<polyline fill="none" stroke="black" points="851.52,-619.5 851.52,-644.3 "/>
<text text-anchor="middle" x="977.14" y="-627.7" font-family="Courier New" font-size="14.00">PaymentType: paymentType (1)</text>
<polyline fill="none" stroke="black" points="701.1,-619.5 1102.76,-619.5 "/>
<text text-anchor="middle" x="901.71" y="-602.9" font-family="Courier New" font-size="14.00">uint256: paymentID (32)</text>
<polyline fill="none" stroke="black" points="701.1,-594.7 1102.76,-594.7 "/>
<text text-anchor="middle" x="788.81" y="-578.1" font-family="Courier New" font-size="14.00">unallocated (31)</text>
<polyline fill="none" stroke="black" points="876.52,-569.9 876.52,-594.7 "/>
<text text-anchor="middle" x="989.44" y="-578.1" font-family="Courier New" font-size="14.00">bool: adminUpdated (1)</text>
<polyline fill="none" stroke="black" points="701.1,-569.9 1102.76,-569.9 "/>
<text text-anchor="middle" x="901.82" y="-553.3" font-family="Courier New" font-size="14.00">string: recipientName (32)</text>
<polyline fill="none" stroke="black" points="701.1,-545.1 1102.76,-545.1 "/>
<text text-anchor="middle" x="786.81" y="-528.5" font-family="Courier New" font-size="14.00">unallocated (12)</text>
<polyline fill="none" stroke="black" points="872.52,-520.3 872.52,-545.1 "/>
<text text-anchor="middle" x="987.64" y="-528.5" font-family="Courier New" font-size="14.00">address: recipient (20)</text>
<polyline fill="none" stroke="black" points="701.1,-520.3 1102.76,-520.3 "/>
<text text-anchor="middle" x="794.81" y="-503.7" font-family="Courier New" font-size="14.00">unallocated (12)</text>
<polyline fill="none" stroke="black" points="888.52,-495.5 888.52,-520.3 "/>
<text text-anchor="middle" x="995.33" y="-503.7" font-family="Courier New" font-size="14.00">address: admin (20)</text>
<polyline fill="none" stroke="black" points="701.1,-495.5 1102.76,-495.5 "/>
<text text-anchor="middle" x="901.61" y="-478.9" font-family="Courier New" font-size="14.00">uint256: amount (32)</text>
</g>
<!-- 6&#45;&gt;1 -->
<g id="edge1" class="edge">
<title>6:10&#45;&gt;1</title>
<path fill="none" stroke="black" d="M527.68,-370.3C571.17,-370.3 532.96,-430.51 563.68,-461.3 581.83,-479.49 603.05,-495.02 625.7,-508.28"/>
<polygon fill="black" stroke="black" points="624.02,-511.35 634.45,-513.25 627.48,-505.26 624.02,-511.35"/>
</g>
<!-- 2 -->
<g id="node3" class="node">
<title>2</title>
<polygon fill="#f2f2f2" stroke="black" points="709.5,-302.9 709.5,-451.7 1027.95,-451.7 1027.95,-302.9 709.5,-302.9"/>
<text text-anchor="middle" x="868.73" y="-435.1" font-family="Courier New" font-size="14.00">address[5]: administrators &lt;&lt;Array&gt;&gt;</text>
<polyline fill="none" stroke="black" points="709.5,-426.9 1027.95,-426.9 "/>
<text text-anchor="middle" x="734.3" y="-410.3" font-family="Courier New" font-size="14.00">slot</text>
<polyline fill="none" stroke="black" points="709.5,-402.1 759.11,-402.1 "/>
<text text-anchor="middle" x="734.3" y="-385.5" font-family="Courier New" font-size="14.00">4</text>
<polyline fill="none" stroke="black" points="709.5,-377.3 759.11,-377.3 "/>
<text text-anchor="middle" x="734.3" y="-360.7" font-family="Courier New" font-size="14.00">5</text>
<polyline fill="none" stroke="black" points="709.5,-352.5 759.11,-352.5 "/>
<text text-anchor="middle" x="734.3" y="-335.9" font-family="Courier New" font-size="14.00">7</text>
<polyline fill="none" stroke="black" points="709.5,-327.7 759.11,-327.7 "/>
<text text-anchor="middle" x="734.3" y="-311.1" font-family="Courier New" font-size="14.00">8</text>
<polyline fill="none" stroke="black" points="759.11,-302.9 759.11,-426.9 "/>
<text text-anchor="middle" x="893.23" y="-410.3" font-family="Courier New" font-size="14.00">type: variable (bytes)</text>
<polyline fill="none" stroke="black" points="759.11,-402.1 1027.34,-402.1 "/>
<text text-anchor="middle" x="834.32" y="-385.5" font-family="Courier New" font-size="14.00">unallocated (12)</text>
<polyline fill="none" stroke="black" points="909.53,-377.3 909.53,-402.1 "/>
<text text-anchor="middle" x="968.44" y="-385.5" font-family="Courier New" font-size="14.00">address (20)</text>
<polyline fill="none" stroke="black" points="759.11,-377.3 1027.34,-377.3 "/>
<text text-anchor="middle" x="834.32" y="-360.7" font-family="Courier New" font-size="14.00">unallocated (12)</text>
<polyline fill="none" stroke="black" points="909.53,-352.5 909.53,-377.3 "/>
<text text-anchor="middle" x="968.44" y="-360.7" font-family="Courier New" font-size="14.00">address (20)</text>
<polyline fill="none" stroke="black" points="759.11,-352.5 1027.34,-352.5 "/>
<text text-anchor="middle" x="834.32" y="-335.9" font-family="Courier New" font-size="14.00">unallocated (12)</text>
<polyline fill="none" stroke="black" points="909.53,-327.7 909.53,-352.5 "/>
<text text-anchor="middle" x="968.44" y="-335.9" font-family="Courier New" font-size="14.00">address (20)</text>
<polyline fill="none" stroke="black" points="759.11,-327.7 1027.34,-327.7 "/>
<text text-anchor="middle" x="834.32" y="-311.1" font-family="Courier New" font-size="14.00">unallocated (12)</text>
<polyline fill="none" stroke="black" points="909.53,-302.9 909.53,-327.7 "/>
<text text-anchor="middle" x="968.44" y="-311.1" font-family="Courier New" font-size="14.00">address (20)</text>
</g>
<!-- 6&#45;&gt;2 -->
<g id="edge2" class="edge">
<title>6:16&#45;&gt;2</title>
<path fill="none" stroke="black" d="M527.68,-320.3C584.03,-320.3 644.92,-328.01 699.39,-337.76"/>
<polygon fill="black" stroke="black" points="699.02,-341.25 709.49,-339.6 700.28,-334.36 699.02,-341.25"/>
</g>
<!-- 4 -->
<g id="node5" class="node">
<title>4</title>
<polygon fill="#f2f2f2" stroke="black" points="583.48,-192.7 583.48,-283.9 1153.97,-283.9 1153.97,-192.7 583.48,-192.7"/>
<text text-anchor="middle" x="868.73" y="-267.3" font-family="Courier New" font-size="14.00">History[]: paymentHistory &lt;&lt;Array&gt;&gt;</text>
<text text-anchor="middle" x="868.73" y="-250.5" font-family="Courier New" font-size="14.00">0x6e1540171b6c0c960b71a7020d9f60077f6af931a8bbf590da0223dacf75c7af</text>
<polyline fill="none" stroke="black" points="583.48,-242.3 1153.97,-242.3 "/>
<text text-anchor="middle" x="692.18" y="-225.7" font-family="Courier New" font-size="14.00">offset</text>
<polyline fill="none" stroke="black" points="583.48,-217.5 800.89,-217.5 "/>
<text text-anchor="middle" x="692.18" y="-200.9" font-family="Courier New" font-size="14.00">0&#45;2</text>
<polyline fill="none" stroke="black" points="800.89,-192.7 800.89,-242.3 "/>
<text text-anchor="middle" x="977.3" y="-225.7" font-family="Courier New" font-size="14.00">type: variable (bytes)</text>
<polyline fill="none" stroke="black" points="800.89,-217.5 1153.72,-217.5 "/>
<text text-anchor="middle" x="977.3" y="-200.9" font-family="Courier New" font-size="14.00">History (96)</text>
</g>
<!-- 6&#45;&gt;4 -->
<g id="edge3" class="edge">
<title>6:21&#45;&gt;4</title>
<path fill="none" stroke="black" d="M527.68,-295.3C547.87,-295.3 581.04,-291.34 618.95,-285.51"/>
<polygon fill="black" stroke="black" points="619.88,-288.91 629.22,-283.9 618.79,-281.99 619.88,-288.91"/>
</g>
<!-- 5 -->
<g id="node6" class="node">
<title>5</title>
<polygon fill="#f2f2f2" stroke="black" points="563.68,-0.5 563.68,-174.1 1173.77,-174.1 1173.77,-0.5 563.68,-0.5"/>
<text text-anchor="middle" x="868.73" y="-157.5" font-family="Courier New" font-size="14.00">ImportantStruct &lt;&lt;Struct&gt;&gt;</text>
<polyline fill="none" stroke="black" points="563.68,-149.3 1173.77,-149.3 "/>
<text text-anchor="middle" x="596.88" y="-132.7" font-family="Courier New" font-size="14.00">offset</text>
<polyline fill="none" stroke="black" points="563.68,-124.5 630.09,-124.5 "/>
<text text-anchor="middle" x="596.88" y="-107.9" font-family="Courier New" font-size="14.00">0</text>
<polyline fill="none" stroke="black" points="563.68,-99.7 630.09,-99.7 "/>
<text text-anchor="middle" x="596.88" y="-83.1" font-family="Courier New" font-size="14.00">1</text>
<polyline fill="none" stroke="black" points="563.68,-74.9 630.09,-74.9 "/>
<text text-anchor="middle" x="596.88" y="-58.3" font-family="Courier New" font-size="14.00">2</text>
<polyline fill="none" stroke="black" points="563.68,-50.1 630.09,-50.1 "/>
<text text-anchor="middle" x="596.88" y="-33.5" font-family="Courier New" font-size="14.00">3</text>
<polyline fill="none" stroke="black" points="563.68,-25.3 630.09,-25.3 "/>
<text text-anchor="middle" x="596.88" y="-8.7" font-family="Courier New" font-size="14.00">4</text>
<polyline fill="none" stroke="black" points="630.09,-0.5 630.09,-149.3 "/>
<text text-anchor="middle" x="901.93" y="-132.7" font-family="Courier New" font-size="14.00">type: variable (bytes)</text>
<polyline fill="none" stroke="black" points="630.09,-124.5 1173.77,-124.5 "/>
<text text-anchor="middle" x="901.6" y="-107.9" font-family="Courier New" font-size="14.00">uint256: amount (32)</text>
<polyline fill="none" stroke="black" points="630.09,-99.7 1173.77,-99.7 "/>
<text text-anchor="middle" x="901.6" y="-83.1" font-family="Courier New" font-size="14.00">uint256: valueA (32)</text>
<polyline fill="none" stroke="black" points="630.09,-74.9 1173.77,-74.9 "/>
<text text-anchor="middle" x="901.5" y="-58.3" font-family="Courier New" font-size="14.00">uint256: bigValue (32)</text>
<polyline fill="none" stroke="black" points="630.09,-50.1 1173.77,-50.1 "/>
<text text-anchor="middle" x="901.6" y="-33.5" font-family="Courier New" font-size="14.00">uint256: valueB (32)</text>
<polyline fill="none" stroke="black" points="630.09,-25.3 1173.77,-25.3 "/>
<text text-anchor="middle" x="705.3" y="-8.7" font-family="Courier New" font-size="14.00">unallocated (11)</text>
<polyline fill="none" stroke="black" points="780.51,-0.5 780.51,-25.3 "/>
<text text-anchor="middle" x="872.52" y="-8.7" font-family="Courier New" font-size="14.00">address: sender (20)</text>
<polyline fill="none" stroke="black" points="964.54,-0.5 964.54,-25.3 "/>
<text text-anchor="middle" x="1069.15" y="-8.7" font-family="Courier New" font-size="14.00">bool: paymentStatus (1)</text>
</g>
<!-- 6&#45;&gt;5 -->
<g id="edge4" class="edge">
<title>6:30&#45;&gt;5</title>
<path fill="none" stroke="black" d="M527.68,-221.3C550.95,-221.3 543.96,-195.64 563.68,-183.3 565.89,-181.92 568.12,-180.56 570.36,-179.21"/>
<polygon fill="black" stroke="black" points="572.25,-182.17 579.13,-174.12 568.73,-176.11 572.25,-182.17"/>
</g>
<!-- 3 -->
<g id="node4" class="node">
<title>3</title>
<polygon fill="#f2f2f2" stroke="black" points="1209.77,-134.9 1209.77,-275.7 1780.26,-275.7 1780.26,-134.9 1209.77,-134.9"/>
<text text-anchor="middle" x="1495.01" y="-259.1" font-family="Courier New" font-size="14.00">History &lt;&lt;Struct&gt;&gt;</text>
<text text-anchor="middle" x="1495.01" y="-242.3" font-family="Courier New" font-size="14.00">0x6e1540171b6c0c960b71a7020d9f60077f6af931a8bbf590da0223dacf75c7af</text>
<polyline fill="none" stroke="black" points="1209.77,-234.1 1780.26,-234.1 "/>
<text text-anchor="middle" x="1278.97" y="-217.5" font-family="Courier New" font-size="14.00">offset</text>
<polyline fill="none" stroke="black" points="1209.77,-209.3 1348.18,-209.3 "/>
<text text-anchor="middle" x="1278.97" y="-192.7" font-family="Courier New" font-size="14.00">0</text>
<polyline fill="none" stroke="black" points="1209.77,-184.5 1348.18,-184.5 "/>
<text text-anchor="middle" x="1278.97" y="-167.9" font-family="Courier New" font-size="14.00">1</text>
<polyline fill="none" stroke="black" points="1209.77,-159.7 1348.18,-159.7 "/>
<text text-anchor="middle" x="1278.97" y="-143.1" font-family="Courier New" font-size="14.00">2</text>
<polyline fill="none" stroke="black" points="1348.18,-134.9 1348.18,-234.1 "/>
<text text-anchor="middle" x="1564" y="-217.5" font-family="Courier New" font-size="14.00">type: variable (bytes)</text>
<polyline fill="none" stroke="black" points="1348.18,-209.3 1779.83,-209.3 "/>
<text text-anchor="middle" x="1563.99" y="-192.7" font-family="Courier New" font-size="14.00">uint256: lastUpdate (32)</text>
<polyline fill="none" stroke="black" points="1348.18,-184.5 1779.83,-184.5 "/>
<text text-anchor="middle" x="1441.39" y="-167.9" font-family="Courier New" font-size="14.00">unallocated (12)</text>
<polyline fill="none" stroke="black" points="1534.6,-159.7 1534.6,-184.5 "/>
<text text-anchor="middle" x="1657.22" y="-167.9" font-family="Courier New" font-size="14.00">address: updatedBy (20)</text>
<polyline fill="none" stroke="black" points="1348.18,-159.7 1779.83,-159.7 "/>
<text text-anchor="middle" x="1563.69" y="-143.1" font-family="Courier New" font-size="14.00">uint256: blockNumber (32)</text>
</g>
<!-- 4&#45;&gt;3 -->
<g id="edge5" class="edge">
<title>4:20&#45;&gt;3</title>
<path fill="none" stroke="black" d="M1154.73,-205.3C1169.2,-205.3 1184.03,-205.3 1199,-205.3"/>
<polygon fill="black" stroke="black" points="1199.39,-208.8 1209.39,-205.3 1199.39,-201.8 1199.39,-208.8"/>
</g>
</g>
</svg>
