<?xml version="1.0" encoding="UTF-8" standalone="no"?>
<!DOCTYPE svg PUBLIC "-//W3C//DTD SVG 1.1//EN"
 "http://www.w3.org/Graphics/SVG/1.1/DTD/svg11.dtd">
<!-- Generated by graphviz version 5.0.0 (20220707.1540)
 -->
<!-- Title: StorageDiagram Pages: 1 -->
<svg width="1851pt" height="419pt"
 viewBox="0.00 0.00 1851.47 418.60" xmlns="http://www.w3.org/2000/svg" xmlns:xlink="http://www.w3.org/1999/xlink">
<g id="graph0" class="graph" transform="scale(1 1) rotate(0) translate(4 414.6)">
<title>StorageDiagram</title>
<polygon fill="white" stroke="transparent" points="-4,4 -4,-414.6 1847.47,-414.6 1847.47,4 -4,4"/>
<!-- 4 -->
<g id="node1" class="node">
<title>4</title>
<polygon fill="#f2f2f2" stroke="black" points="0,-155.9 0,-354.3 527.68,-354.3 527.68,-155.9 0,-155.9"/>
<text text-anchor="middle" x="263.84" y="-337.7" font-family="Courier New" font-size="14.00">GasContract &lt;&lt;Contract&gt;&gt;</text>
<polyline fill="none" stroke="black" points="0,-329.5 527.68,-329.5 "/>
<text text-anchor="middle" x="24.8" y="-312.9" font-family="Courier New" font-size="14.00">slot</text>
<polyline fill="none" stroke="black" points="0,-304.7 49.61,-304.7 "/>
<text text-anchor="middle" x="24.8" y="-288.1" font-family="Courier New" font-size="14.00">0</text>
<polyline fill="none" stroke="black" points="0,-279.9 49.61,-279.9 "/>
<text text-anchor="middle" x="24.8" y="-263.3" font-family="Courier New" font-size="14.00">1</text>
<polyline fill="none" stroke="black" points="0,-255.1 49.61,-255.1 "/>
<text text-anchor="middle" x="24.8" y="-238.5" font-family="Courier New" font-size="14.00">2</text>
<polyline fill="none" stroke="black" points="0,-230.3 49.61,-230.3 "/>
<text text-anchor="middle" x="24.8" y="-213.7" font-family="Courier New" font-size="14.00">3</text>
<polyline fill="none" stroke="black" points="0,-205.5 49.61,-205.5 "/>
<text text-anchor="middle" x="24.8" y="-188.9" font-family="Courier New" font-size="14.00">4&#45;8</text>
<polyline fill="none" stroke="black" points="0,-180.7 49.61,-180.7 "/>
<text text-anchor="middle" x="24.8" y="-164.1" font-family="Courier New" font-size="14.00">9</text>
<polyline fill="none" stroke="black" points="49.61,-155.9 49.61,-329.5 "/>
<text text-anchor="middle" x="288.64" y="-312.9" font-family="Courier New" font-size="14.00">type: &lt;inherited contract&gt;.variable (bytes)</text>
<polyline fill="none" stroke="black" points="49.61,-304.7 527.68,-304.7 "/>
<text text-anchor="middle" x="149.82" y="-288.1" font-family="Courier New" font-size="14.00">unallocated (31)</text>
<polyline fill="none" stroke="black" points="250.03,-279.9 250.03,-304.7 "/>
<text text-anchor="middle" x="388.54" y="-288.1" font-family="Courier New" font-size="14.00">uint8: paymentCounter (1)</text>
<polyline fill="none" stroke="black" points="49.61,-279.9 527.68,-279.9 "/>
<text text-anchor="middle" x="288.63" y="-263.3" font-family="Courier New" font-size="14.00">mapping(address=&gt;uint256): balances (32)</text>
<polyline fill="none" stroke="black" points="49.61,-255.1 527.68,-255.1 "/>
<text text-anchor="middle" x="288.53" y="-238.5" font-family="Courier New" font-size="14.00">mapping(address=&gt;Payment[]): payments (32)</text>
<polyline fill="none" stroke="black" points="49.61,-230.3 527.68,-230.3 "/>
<text text-anchor="middle" x="288.33" y="-213.7" font-family="Courier New" font-size="14.00">mapping(address=&gt;uint256): whitelist (32)</text>
<polyline fill="none" stroke="black" points="49.61,-205.5 527.68,-205.5 "/>
<text text-anchor="middle" x="288.53" y="-188.9" font-family="Courier New" font-size="14.00">address[5]: administrators (160)</text>
<polyline fill="none" stroke="black" points="49.61,-180.7 527.68,-180.7 "/>
<text text-anchor="middle" x="288.64" y="-164.1" font-family="Courier New" font-size="14.00">mapping(address=&gt;ImportantStruct): whiteListStruct (32)</text>
</g>
<!-- 1 -->
<g id="node2" class="node">
<title>1</title>
<polygon fill="#f2f2f2" stroke="black" points="563.68,-286.1 563.68,-410.1 1843.47,-410.1 1843.47,-286.1 563.68,-286.1"/>
<text text-anchor="middle" x="1203.58" y="-393.5" font-family="Courier New" font-size="14.00">Payment &lt;&lt;Struct&gt;&gt;</text>
<polyline fill="none" stroke="black" points="563.68,-385.3 1843.47,-385.3 "/>
<text text-anchor="middle" x="596.88" y="-368.7" font-family="Courier New" font-size="14.00">offset</text>
<polyline fill="none" stroke="black" points="563.68,-360.5 630.09,-360.5 "/>
<text text-anchor="middle" x="596.88" y="-343.9" font-family="Courier New" font-size="14.00">0</text>
<polyline fill="none" stroke="black" points="563.68,-335.7 630.09,-335.7 "/>
<text text-anchor="middle" x="596.88" y="-319.1" font-family="Courier New" font-size="14.00">1</text>
<polyline fill="none" stroke="black" points="563.68,-310.9 630.09,-310.9 "/>
<text text-anchor="middle" x="596.88" y="-294.3" font-family="Courier New" font-size="14.00">2</text>
<polyline fill="none" stroke="black" points="630.09,-286.1 630.09,-385.3 "/>
<text text-anchor="middle" x="1236.78" y="-368.7" font-family="Courier New" font-size="14.00">type: variable (bytes)</text>
<polyline fill="none" stroke="black" points="630.09,-360.5 1843.47,-360.5 "/>
<text text-anchor="middle" x="701.1" y="-343.9" font-family="Courier New" font-size="14.00">unallocated (1)</text>
<polyline fill="none" stroke="black" points="772.11,-335.7 772.11,-360.5 "/>
<text text-anchor="middle" x="876.73" y="-343.9" font-family="Courier New" font-size="14.00">address: recipient (20)</text>
<polyline fill="none" stroke="black" points="981.34,-335.7 981.34,-360.5 "/>
<text text-anchor="middle" x="1094.36" y="-343.9" font-family="Courier New" font-size="14.00">bytes8: recipientName (8)</text>
<polyline fill="none" stroke="black" points="1207.38,-335.7 1207.38,-360.5 "/>
<text text-anchor="middle" x="1307.79" y="-343.9" font-family="Courier New" font-size="14.00">bool: adminUpdated (1)</text>
<polyline fill="none" stroke="black" points="1408.21,-335.7 1408.21,-360.5 "/>
<text text-anchor="middle" x="1500.22" y="-343.9" font-family="Courier New" font-size="14.00">uint8: paymentID (1)</text>
<polyline fill="none" stroke="black" points="1592.23,-335.7 1592.23,-360.5 "/>
<text text-anchor="middle" x="1717.85" y="-343.9" font-family="Courier New" font-size="14.00">PaymentType: paymentType (1)</text>
<polyline fill="none" stroke="black" points="630.09,-335.7 1843.47,-335.7 "/>
<text text-anchor="middle" x="926.8" y="-319.1" font-family="Courier New" font-size="14.00">unallocated (12)</text>
<polyline fill="none" stroke="black" points="1223.51,-310.9 1223.51,-335.7 "/>
<text text-anchor="middle" x="1533.32" y="-319.1" font-family="Courier New" font-size="14.00">address: admin (20)</text>
<polyline fill="none" stroke="black" points="630.09,-310.9 1843.47,-310.9 "/>
<text text-anchor="middle" x="1236.6" y="-294.3" font-family="Courier New" font-size="14.00">uint256: amount (32)</text>
</g>
<!-- 4&#45;&gt;1 -->
<g id="edge1" class="edge">
<title>4:10&#45;&gt;1</title>
<path fill="none" stroke="black" d="M527.68,-243.1C549.69,-243.1 543.71,-267.85 563.68,-277.1 567.35,-278.8 571.04,-280.46 574.76,-282.1"/>
<polygon fill="black" stroke="black" points="573.47,-285.35 584.04,-286.09 576.24,-278.92 573.47,-285.35"/>
</g>
<!-- 2 -->
<g id="node3" class="node">
<title>2</title>
<polygon fill="#f2f2f2" stroke="black" points="1044.35,-118.7 1044.35,-267.5 1362.8,-267.5 1362.8,-118.7 1044.35,-118.7"/>
<text text-anchor="middle" x="1203.58" y="-250.9" font-family="Courier New" font-size="14.00">address[5]: administrators &lt;&lt;Array&gt;&gt;</text>
<polyline fill="none" stroke="black" points="1044.35,-242.7 1362.8,-242.7 "/>
<text text-anchor="middle" x="1069.15" y="-226.1" font-family="Courier New" font-size="14.00">slot</text>
<polyline fill="none" stroke="black" points="1044.35,-217.9 1093.96,-217.9 "/>
<text text-anchor="middle" x="1069.15" y="-201.3" font-family="Courier New" font-size="14.00">4</text>
<polyline fill="none" stroke="black" points="1044.35,-193.1 1093.96,-193.1 "/>
<text text-anchor="middle" x="1069.15" y="-176.5" font-family="Courier New" font-size="14.00">5</text>
<polyline fill="none" stroke="black" points="1044.35,-168.3 1093.96,-168.3 "/>
<text text-anchor="middle" x="1069.15" y="-151.7" font-family="Courier New" font-size="14.00">7</text>
<polyline fill="none" stroke="black" points="1044.35,-143.5 1093.96,-143.5 "/>
<text text-anchor="middle" x="1069.15" y="-126.9" font-family="Courier New" font-size="14.00">8</text>
<polyline fill="none" stroke="black" points="1093.96,-118.7 1093.96,-242.7 "/>
<text text-anchor="middle" x="1228.08" y="-226.1" font-family="Courier New" font-size="14.00">type: variable (bytes)</text>
<polyline fill="none" stroke="black" points="1093.96,-217.9 1362.19,-217.9 "/>
<text text-anchor="middle" x="1169.17" y="-201.3" font-family="Courier New" font-size="14.00">unallocated (12)</text>
<polyline fill="none" stroke="black" points="1244.38,-193.1 1244.38,-217.9 "/>
<text text-anchor="middle" x="1303.29" y="-201.3" font-family="Courier New" font-size="14.00">address (20)</text>
<polyline fill="none" stroke="black" points="1093.96,-193.1 1362.19,-193.1 "/>
<text text-anchor="middle" x="1169.17" y="-176.5" font-family="Courier New" font-size="14.00">unallocated (12)</text>
<polyline fill="none" stroke="black" points="1244.38,-168.3 1244.38,-193.1 "/>
<text text-anchor="middle" x="1303.29" y="-176.5" font-family="Courier New" font-size="14.00">address (20)</text>
<polyline fill="none" stroke="black" points="1093.96,-168.3 1362.19,-168.3 "/>
<text text-anchor="middle" x="1169.17" y="-151.7" font-family="Courier New" font-size="14.00">unallocated (12)</text>
<polyline fill="none" stroke="black" points="1244.38,-143.5 1244.38,-168.3 "/>
<text text-anchor="middle" x="1303.29" y="-151.7" font-family="Courier New" font-size="14.00">address (20)</text>
<polyline fill="none" stroke="black" points="1093.96,-143.5 1362.19,-143.5 "/>
<text text-anchor="middle" x="1169.17" y="-126.9" font-family="Courier New" font-size="14.00">unallocated (12)</text>
<polyline fill="none" stroke="black" points="1244.38,-118.7 1244.38,-143.5 "/>
<text text-anchor="middle" x="1303.29" y="-126.9" font-family="Courier New" font-size="14.00">address (20)</text>
</g>
<!-- 4&#45;&gt;2 -->
<g id="edge2" class="edge">
<title>4:16&#45;&gt;2</title>
<path fill="none" stroke="black" d="M527.68,-193.1C700.14,-193.1 897.4,-193.1 1033.92,-193.1"/>
<polygon fill="black" stroke="black" points="1034.05,-196.6 1044.05,-193.1 1034.05,-189.6 1034.05,-196.6"/>
</g>
<!-- 3 -->
<g id="node4" class="node">
<title>3</title>
<polygon fill="#f2f2f2" stroke="black" points="990.54,-0.5 990.54,-99.7 1416.61,-99.7 1416.61,-0.5 990.54,-0.5"/>
<text text-anchor="middle" x="1203.58" y="-83.1" font-family="Courier New" font-size="14.00">ImportantStruct &lt;&lt;Struct&gt;&gt;</text>
<polyline fill="none" stroke="black" points="990.54,-74.9 1416.61,-74.9 "/>
<text text-anchor="middle" x="1023.75" y="-58.3" font-family="Courier New" font-size="14.00">offset</text>
<polyline fill="none" stroke="black" points="990.54,-50.1 1056.95,-50.1 "/>
<text text-anchor="middle" x="1023.75" y="-33.5" font-family="Courier New" font-size="14.00">0</text>
<polyline fill="none" stroke="black" points="990.54,-25.3 1056.95,-25.3 "/>
<text text-anchor="middle" x="1023.75" y="-8.7" font-family="Courier New" font-size="14.00">1</text>
<polyline fill="none" stroke="black" points="1056.95,-0.5 1056.95,-74.9 "/>
<text text-anchor="middle" x="1236.78" y="-58.3" font-family="Courier New" font-size="14.00">type: variable (bytes)</text>
<polyline fill="none" stroke="black" points="1056.95,-50.1 1416.61,-50.1 "/>
<text text-anchor="middle" x="1236.47" y="-33.5" font-family="Courier New" font-size="14.00">uint256: amount (32)</text>
<polyline fill="none" stroke="black" points="1056.95,-25.3 1416.61,-25.3 "/>
<text text-anchor="middle" x="1132.16" y="-8.7" font-family="Courier New" font-size="14.00">unallocated (31)</text>
<polyline fill="none" stroke="black" points="1207.38,-0.5 1207.38,-25.3 "/>
<text text-anchor="middle" x="1311.99" y="-8.7" font-family="Courier New" font-size="14.00">bool: paymentStatus (1)</text>
</g>
<!-- 4&#45;&gt;3 -->
<g id="edge3" class="edge">
<title>4:19&#45;&gt;3</title>
<path fill="none" stroke="black" d="M527.68,-168.1C558.4,-168.1 537.61,-125.35 563.68,-109.1 686.67,-32.42 849.67,-18.44 980.25,-23.24"/>
<polygon fill="black" stroke="black" points="980.25,-26.74 990.39,-23.65 980.54,-19.75 980.25,-26.74"/>
</g>
</g>
</svg>
